<svg xmlns="http://www.w3.org/2000/svg" viewBox="0 0 40 40"><defs><style>.cls-1{fill:#3592b5;}.cls-2{fill:#72bf44;}.cls-3{fill:#050505;}.cls-4{fill:#fff;}</style></defs><title>Artboard 85</title><g id="Content"><path class="cls-1" d="M19.9999.47913v.8991a18.13977,18.13977,0,1,1-17.25525,12.536l-.85439-.2776a18.10168,18.10168,0,0,0-.932,5.88423A19.0417,19.0417,0,1,0,19.9999.47913Z"/><path class="cls-2" d="M19.9999,1.37823h0V.47913A18.74252,18.74252,0,0,0,1.89026,13.63664l.85439.2776A18.1472,18.1472,0,0,1,19.9999,1.37823Z"/><path class="cls-3" d="M20,32.98541c-.13386,0-.26709-.00274-.4-.00638l2.7516-7.56241h3.78666a1.85657,1.85657,0,0,0,1.62168-1.1352l2.98539-8.2002a1.70329,1.70329,0,0,0-1.70887-2.44072H23.78273L19.37467,25.75332H19.373l-2.49891,6.86624a13.46776,13.46776,0,0,1-.50926-26.0661l-2.57853,7.087h-.00078L9.499,25.41662l2.85368.00031L15.99807,15.41h2.1446L14.49714,25.41693l2.85247.00031,3.39729-9.336a1.703,1.703,0,0,0-1.70753-2.44072H16.64056l2.7543-7.57c.20072-.009.40216-.01416.60516-.01416a13.46454,13.46454,0,0,1,0,26.92907Zm8.14672-17.58256h-2.144l-3.00244,8.238h2.144Z"/><circle class="cls-1" cx="32.09938" cy="32.62025" r="6.90062"/><path class="cls-4" d="M29.49205,33.39876l2.34961-3.96094h1.56641v4.042h.80078v.93652h-.80078v1.30518H32.201V34.41634h-2.709Zm2.709.08105V30.75227h-.01758l-1.55859,2.72754Z"/></g></svg>