<svg xmlns="http://www.w3.org/2000/svg" viewBox="0 0 40 40"><defs><style>.cls-1{fill:#050505;}.cls-2{fill:#72bf44;}.cls-3{fill:#3592b5;}.cls-4{fill:#fff;}</style></defs><title>Artboard 85 copy</title><g id="Content"><path class="cls-1" d="M23.67823,16.9571a3.209,3.209,0,0,0-.281.308,2.16612,2.16612,0,0,0-.17407.25073,1.55427,1.55427,0,0,0-.10376.20331.759.759,0,0,0-.07654.41333.20848.20848,0,0,0,.07568.10822.39442.39442,0,0,0,.38464.00464,1.13022,1.13022,0,0,0,.41431-.36932,2.69867,2.69867,0,0,0,.18872-.29205,3.91525,3.91525,0,0,0,.1991-.41583,4.14508,4.14508,0,0,0,.15759-.4632,2.42957,2.42957,0,0,0,.075-.38824,3.70629,3.70629,0,0,0-.45667.29486A4.11183,4.11183,0,0,0,23.67823,16.9571Z"/><path class="cls-1" d="M18.16212,18.10688a.40528.40528,0,0,0,.0459-.09631c.00671-.04694.03979-.13727-.03564-.18744a.16967.16967,0,0,0-.13892,0,.48875.48875,0,0,0-.10925.05933,1.49312,1.49312,0,0,0-.19983.1601,4.18,4.18,0,0,0-.31909.32941c-.12158.13879-.2561.30664-.37073.46521-.11609.1593-.2135.31152-.28748.43726a3.18114,3.18114,0,0,0-.16016.311,1.50838,1.50838,0,0,0-.07349.20239.70134.70134,0,0,0-.02612.1275.21022.21022,0,0,0,.05078.17676.17306.17306,0,0,0,.17871.05194.37161.37161,0,0,0,.12561-.07013.86982.86982,0,0,0,.097-.09119,1.73838,1.73838,0,0,0,.13477-.15723c.05225-.06757.11182-.15167.1687-.23889l.75562-1.21307C18.063,18.27,18.12733,18.16639,18.16212,18.10688Z"/><path class="cls-1" d="M12.97828,18.73573a2.28621,2.28621,0,0,1-.17981-.22156,6.22848,6.22848,0,0,0-.38086.4967,3.917,3.917,0,0,0-.25281.41968,1.998,1.998,0,0,0-.12183.28436.817.817,0,0,0-.03979.17145.2932.2932,0,0,0,.02979.18439.26383.26383,0,0,0,.35693.07324.53711.53711,0,0,0,.08862-.0509,1.19714,1.19714,0,0,0,.11414-.09473,1.9038,1.9038,0,0,0,.2301-.27179c.12988-.17267.33545-.46423.53271-.76141a1.64051,1.64051,0,0,1-.22412-.10651A.63187.63187,0,0,1,12.97828,18.73573Z"/><path class="cls-1" d="M24.20607,20.48353a.72527.72527,0,0,1-.09521-.08563.64551.64551,0,0,1-.12048-.18646,2.29224,2.29224,0,0,0-.61755.8053,1.48482,1.48482,0,0,0-.07837.22705,1.365,1.365,0,0,0-.03455.194.49129.49129,0,0,0,.02307.22742.335.335,0,0,0,.042.08118.2238.2238,0,0,0,.18225.10248.17405.17405,0,0,0,.07092-.01617.66242.66242,0,0,0,.11133-.06226,1.38356,1.38356,0,0,0,.17554-.14374,2.90285,2.90285,0,0,0,.23425-.2486,4.147,4.147,0,0,0,.25623-.33453c.08569-.12073.168-.24866.24365-.3808a1.9988,1.9988,0,0,1-.24329-.09131A.81986.81986,0,0,1,24.20607,20.48353Z"/><path class="cls-1" d="M13.3285,17.85236a.51153.51153,0,0,0-.09729.053.58078.58078,0,0,0-.08459.067.37742.37742,0,0,0-.088.4978.4521.4521,0,0,0,.04639.05847.46511.46511,0,0,0,.0708.065.78338.78338,0,0,0,.11646.0719,1.75307,1.75307,0,0,0,.18628.07709c.05347-.10461.10327-.20886.13428-.28143a.78166.78166,0,0,0,.05139-.152,1.0879,1.0879,0,0,0,.01941-.12677.41374.41374,0,0,0-.072-.33209C13.52369,17.777,13.429,17.81446,13.3285,17.85236Z"/><path class="cls-1" d="M24.67543,19.477a.39622.39622,0,0,0-.213.06348.51165.51165,0,0,0-.22046.60352.356.356,0,0,0,.06885.11835.37766.37766,0,0,0,.06055.05884.50046.50046,0,0,0,.10425.06567,1.4491,1.4491,0,0,0,.18994.07709c.06665-.12592.12854-.25421.16357-.33783a.73357.73357,0,0,0,.05444-.163,1.13139,1.13139,0,0,0,.01819-.12164c.00378-.04315.00586-.08716.00586-.12085a.26473.26473,0,0,0-.0592-.19128A.23154.23154,0,0,0,24.67543,19.477Z"/><path class="cls-1" d="M19.91847,5.97419A13.41669,13.41669,0,1,0,33.33522,19.39088,13.41665,13.41665,0,0,0,19.91847,5.97419Zm-.1543,11.52832h.67456l-.3667.62091h-.64832ZM17.67982,22.1612a1.53379,1.53379,0,0,0-.29773-.07709,1.17572,1.17572,0,0,0-.14966-.01306,1.81608,1.81608,0,0,0-.35034.03491,2.43336,2.43336,0,0,0-.90674.38892,2.29913,2.29913,0,0,0-.31738-.32025,1.22226,1.22226,0,0,0-.30286-.18512,1.4188,1.4188,0,0,0-.36243-.10559,3.03907,3.03907,0,0,0-.51733-.03815,4.09023,4.09023,0,0,0-1.08435.12036c-.49561.10718-1.18945.29877-1.68323.40729a4.11244,4.11244,0,0,1-1.07788.12146,3.326,3.326,0,0,1-.52417-.03925,1.89252,1.89252,0,0,1-.38623-.09973,1.41155,1.41155,0,0,1-.27368-.13556,1.17252,1.17252,0,0,1-.20142-.16168,1.09171,1.09171,0,0,1-.1488-.18713,1.18466,1.18466,0,0,1-.1084-.21637,1.53382,1.53382,0,0,1-.073-.25354,2.37993,2.37993,0,0,1-.02368-.65668,2.91374,2.91374,0,0,1,.10535-.55206,4.72451,4.72451,0,0,1,.25781-.68372,7.88678,7.88678,0,0,1,1.1438-1.74762,8.77164,8.77164,0,0,1,.78906-.8136,6.80746,6.80746,0,0,1,.756-.58972,4.37677,4.37677,0,0,1,.635-.35486,2.81917,2.81917,0,0,1,.5105-.17474,1.97315,1.97315,0,0,1,.38562-.05023.69828.69828,0,0,1,.22681.02374.50481.50481,0,0,1,.15405.0719.41916.41916,0,0,1,.10718.10938.65521.65521,0,0,1-.00757.611,1.10955,1.10955,0,0,1-.0769.15234.95135.95135,0,0,1-.09351.1297c-.16492.18646-.33044.2558-.46289.152a.22849.22849,0,0,1-.09082-.18024.41512.41512,0,0,1,.11523-.22168,1.09,1.09,0,0,1,.10083-.09924,1.50437,1.50437,0,0,1,.32446-.214.831.831,0,0,0,.00317-.09186.16355.16355,0,0,0-.04053-.12689.17651.17651,0,0,0-.12231-.0351.906.906,0,0,0-.22937.03094,1.42639,1.42639,0,0,0-.28088.10681,2.50251,2.50251,0,0,0-.36963.22754,4.66341,4.66341,0,0,0-.502.43262,7.87478,7.87478,0,0,0-.64417.7215,11.5656,11.5656,0,0,0-.7019.99622,10.51634,10.51634,0,0,0-.55725,1.01233,5.78505,5.78505,0,0,0-.29907.75024,2.33057,2.33057,0,0,0-.10608.49194,1.74309,1.74309,0,0,0-.00317.28485,1.3544,1.3544,0,0,0,.04016.2514,1.06012,1.06012,0,0,0,.08167.21466.91361.91361,0,0,0,.12341.18628,1.02366,1.02366,0,0,0,.17236.16046,1.11445,1.11445,0,0,0,.23486.13092,1.449,1.449,0,0,0,.31519.09235,2.23227,2.23227,0,0,0,.395.03387,4.87352,4.87352,0,0,0,1.13306-.18146c.57031-.14069,1.43018-.38629,2.02527-.52289a4.238,4.238,0,0,1,1.24988-.1427,4.77211,4.77211,0,0,1,1.03406.09906,2.66208,2.66208,0,0,1,.84045.32782,5.19117,5.19117,0,0,1,.88232.67352C18.15333,22.32667,17.85853,22.22034,17.67982,22.1612Zm.838-2.30475a3.93049,3.93049,0,0,1-.39722.47144,2.187,2.187,0,0,1-.34241.28394.98544.98544,0,0,1-.53674.18988,1.01638,1.01638,0,0,1-.11841-.00684.28371.28371,0,0,1-.21094-.09979.23611.23611,0,0,1-.041-.10114.48569.48569,0,0,1-.01025-.09839,1.707,1.707,0,0,1,.00818-.17438,3.8123,3.8123,0,0,1-.3125.2616,1.385,1.385,0,0,1-.22473.13623.66805.66805,0,0,1-.49072.05969.26024.26024,0,0,1-.13782-.10632.36436.36436,0,0,1-.03113-.06158.57116.57116,0,0,1-.02478-.08978.81468.81468,0,0,1-.014-.18335c.001-.10077.00977-.25677.02454-.41241-.1637.1792-.33484.34882-.4707.46973a2.40262,2.40262,0,0,1-.32251.24854,1.16192,1.16192,0,0,1-.66394.21326.73934.73934,0,0,1-.23853-.0351.56192.56192,0,0,1-.1875-.10077.56935.56935,0,0,1-.12964-.15411.97118.97118,0,0,1-.04358-.68384,1.36644,1.36644,0,0,1,.11316-.31635c.07642-.167.20825-.42908.34863-.68506l-.47717.11353c-.19238.29584-.39807.58618-.56848.805a4.975,4.975,0,0,1-.42651.48431,2.78064,2.78064,0,0,1-.31372.26727,1.6936,1.6936,0,0,1-.25049.14911,1.09974,1.09974,0,0,1-.2168.0769.91662.91662,0,0,1-.19409.024.57469.57469,0,0,1-.16016-.02252.42016.42016,0,0,1-.124-.06018.40838.40838,0,0,1-.09094-.091.45714.45714,0,0,1-.06128-.11932.60139.60139,0,0,1-.03271-.14917.9781.9781,0,0,1,.0011-.199,2.11254,2.11254,0,0,1,.054-.29272,2.6021,2.6021,0,0,1,.12524-.3645,4.05661,4.05661,0,0,1,.54541-.9035,4.68908,4.68908,0,0,1,.40039-.4425,3.58937,3.58937,0,0,1,.405-.3418,2.40223,2.40223,0,0,1,.34778-.21185,1.49418,1.49418,0,0,1,.27283-.10425.62756.62756,0,0,1,.42822.01477.37311.37311,0,0,1,.15027.12561.42666.42666,0,0,1,.05042.09662.63894.63894,0,0,1,.03162.26782.90034.90034,0,0,1-.02893.16064c-.01685.06622-.04248.1543-.08008.25922-.03711.10388-.0863.22546-.14026.34448a1.86084,1.86084,0,0,0,.27185-.08685,1.96908,1.96908,0,0,0,.30176-.15375,3.67146,3.67146,0,0,0,.42627-.31854c.17981-.15308.40894-.36359.56445-.48846a1.17265,1.17265,0,0,1,.31323-.1944,1.28374,1.28374,0,0,1,.2041-.06482.89041.89041,0,0,1,.17822-.01978.38865.38865,0,0,1,.23157.06738.45433.45433,0,0,1,.163.504,1.1,1.1,0,0,1-.15405.34949,1.06386,1.06386,0,0,1-.079.10736c-.14612.17285-.29.23633-.399.13965a.218.218,0,0,1-.07275-.1192.38136.38136,0,0,1,.15942-.328.72912.72912,0,0,1,.07117-.045.631.631,0,0,1,.10754-.04474,1.1858,1.1858,0,0,1,.16455-.03748.70805.70805,0,0,0,.00269-.09064.1312.1312,0,0,0-.04614-.10834.14383.14383,0,0,0-.09241-.02753.21577.21577,0,0,0-.085.02045.79713.79713,0,0,0-.14856.08533,2.17326,2.17326,0,0,0-.25586.21533,5.01138,5.01138,0,0,0-.66333.80078,4.03855,4.03855,0,0,0-.229.38458,2.54346,2.54346,0,0,0-.13794.304,1.84231,1.84231,0,0,0-.07251.2337.75884.75884,0,0,0-.02515.32886.19589.19589,0,0,0,.07056.11957.36723.36723,0,0,0,.29639.03284.584.584,0,0,0,.13477-.05157,1.25175,1.25175,0,0,0,.18042-.11285,2.0843,2.0843,0,0,0,.313-.28223c.1499-.15979.36072-.40509.62573-.72565.26538-.31927.58594-.71313.80518-.95874a2.90593,2.90593,0,0,1,.43176-.41724,2.56055,2.56055,0,0,1,.239-.16791.93171.93171,0,0,1,.47034-.14789.84056.84056,0,0,1,.13159.00995.50269.50269,0,0,1,.142.04028,1.80637,1.80637,0,0,1,.23059.11938l.11646-.14142h.6228L18.242,19.16364c-.11206.20825-.22168.41864-.28882.55072-.06714.13141-.09082.18628-.10449.21777a.14445.14445,0,0,0-.01733.08289.07277.07277,0,0,0,.06506.07843.19713.19713,0,0,0,.14429-.03784.60505.60505,0,0,0,.08972-.07294,2.25057,2.25057,0,0,0,.209-.228c.11621-.13794.29712-.36176.47339-.591l.12769.02856A6.61474,6.61474,0,0,1,18.51783,19.85645Zm2.5271,2.454a2.28015,2.28015,0,0,1-.442.18817,1.17448,1.17448,0,0,1-1.0033-.1369,1.12943,1.12943,0,0,1-.24268-.22363,1.192,1.192,0,0,1-.16467-.278,1.26717,1.26717,0,0,1-.08459-.31769,1.55831,1.55831,0,0,1-.00366-.38007,3.69366,3.69366,0,0,1,.09521-.54614,4.89293,4.89293,0,0,1,.21411-.65613,5.97459,5.97459,0,0,1,.36951-.74976,7.53893,7.53893,0,0,1,.5708-.8476,9.08423,9.08423,0,0,1,1.7113-1.69208,6.70122,6.70122,0,0,1,.87476-.56,3.78749,3.78749,0,0,1,.67114-.28,1.417,1.417,0,0,1,.65454-.06366.70257.70257,0,0,1,.19458.06158,2.60491,2.60491,0,0,1,.314.17786c.20776-.07568.41772-.14429.55859-.184a1.63238,1.63238,0,0,1,.28064-.05847,1.53463,1.53463,0,0,1,.52869.02527,2.21641,2.21641,0,0,1,.39282.126,3.19524,3.19524,0,0,1,.49915.27142,6.02808,6.02808,0,0,1,.6156.46887l-.62817.64978a9.36961,9.36961,0,0,0-.94409-.69708,2.26439,2.26439,0,0,0-.64563-.30066,2.29933,2.29933,0,0,0-.62573-.07568.84475.84475,0,0,0-.00427.09943c.00024.04559.002.11041.00293.15289-.00024.043-.001.065-.00269.08655a1.66535,1.66535,0,0,1-.04639.26984,2.6188,2.6188,0,0,1-.27051.65375,3.13625,3.13625,0,0,1-.22827.34418,2.96084,2.96084,0,0,1-.25439.29138,2.10383,2.10383,0,0,1-.24463.20758,1.34751,1.34751,0,0,1-.20911.12677.76273.76273,0,0,1-.32263.08221.5501.5501,0,0,1-.13452-.01569.39571.39571,0,0,1-.10608-.04144.29556.29556,0,0,1-.07629-.06293.32543.32543,0,0,1-.05249-.08411.43163.43163,0,0,1-.0293-.11127.6266.6266,0,0,1,.00024-.1543,1.59869,1.59869,0,0,1,.046-.23755,1.67973,1.67973,0,0,1,.10583-.28308,2.45384,2.45384,0,0,1,.18811-.32367,3.51137,3.51137,0,0,1,.72583-.75336,4.38878,4.38878,0,0,1,.53406-.35986,1.70973,1.70973,0,0,0-.69934.09668,2.1858,2.1858,0,0,0-.29687.14105,3.26726,3.26726,0,0,0-.36267.2406,5.04679,5.04679,0,0,0-.45557.3999,7.43042,7.43042,0,0,0-.57239.63483,11.40476,11.40476,0,0,0-.696.95819c-.24512.37775-.4989.81116-.7019,1.201a9.94806,9.94806,0,0,0-.44653.98761,2.1449,2.1449,0,0,0-.14587.53357.78133.78133,0,0,0,.06079.37994.81237.81237,0,0,0,.10376.17334.65122.65122,0,0,0,.30261.21191.52838.52838,0,0,0,.16858.02478.72148.72148,0,0,0,.20605-.03754,2.26227,2.26227,0,0,0,.6604-.38147,3.48942,3.48942,0,0,0,.64575-.678,2.92009,2.92009,0,0,0,.2085-.33264,2.60317,2.60317,0,0,0,.13965-.30859,1.808,1.808,0,0,0,.12817-.62848.27065.27065,0,0,0-.05994-.16.2839.2839,0,0,0-.328-.03882.68719.68719,0,0,0-.26294.20532,1.26576,1.26576,0,0,0-.10034.1369,1.6224,1.6224,0,0,0-.10254.187,2.3952,2.3952,0,0,0-.17358.51166c-.11353.05194-.22583.10718-.31482.15515a2.133,2.133,0,0,0-.26575.16943c-.10962.08063-.2627.20123-.41162.3252a4.18363,4.18363,0,0,1,.13074-.47467,3.73635,3.73635,0,0,1,.18054-.43243,3.20022,3.20022,0,0,1,.20886-.36566,2.706,2.706,0,0,1,.22009-.28552,1.48412,1.48412,0,0,1,.83118-.51233,1.14789,1.14789,0,0,1,.18982-.01807.74212.74212,0,0,1,.1521.01343.44422.44422,0,0,1,.11279.03436.33375.33375,0,0,1,.14465.12158.4101.4101,0,0,1,.04407.09.70224.70224,0,0,1,.02368.27692,2.56561,2.56561,0,0,1-.071.41351,3.1359,3.1359,0,0,1-.1543.442,3.779,3.779,0,0,1-.63745.978A3.81772,3.81772,0,0,1,21.04493,22.31049Zm7.475-.52441a.20138.20138,0,0,0,.13794-.03113.661.661,0,0,0,.09436-.06226,1.50145,1.50145,0,0,0,.14722-.12939,3.47609,3.47609,0,0,0,.23865-.2619c.10059-.12024.22522-.27966.34485-.44324l.15845-.02856a7.31328,7.31328,0,0,1-.41968.6629,4.50488,4.50488,0,0,1-.38293.47229,2.8956,2.8956,0,0,1-.31335.28961,1.69939,1.69939,0,0,1-.25415.16376.681.681,0,0,1-.50635.08563.24442.24442,0,0,1-.14136-.14685.39081.39081,0,0,1-.02148-.08051.73528.73528,0,0,1-.01294-.13037c-.00073-.05933.0022-.13727.009-.215-.10278.10944-.21094.215-.29419.288a1.44806,1.44806,0,0,1-.19946.15.8255.8255,0,0,1-.28.11316.74147.74147,0,0,1-.12244.01276.2966.2966,0,0,1-.28918-.15619.438.438,0,0,1-.0354-.07983.77359.77359,0,0,1-.02808-.1142,1.26158,1.26158,0,0,1-.0144-.17133,2.20329,2.20329,0,0,1,.009-.24042,5.02784,5.02784,0,0,1-.34521.36566,2.39607,2.39607,0,0,1-.26929.22253.94471.94471,0,0,1-.54309.20233.52823.52823,0,0,1-.14319-.02173.42645.42645,0,0,1-.11768-.05865.44139.44139,0,0,1-.08948-.09064.48755.48755,0,0,1-.06018-.11627.63522.63522,0,0,1-.03186-.14154,1.46418,1.46418,0,0,1,.028-.37457,2.07381,2.07381,0,0,1,.0835-.31635c.05627-.17249.15356-.44476.25732-.71478h-.31152c-.17017.27588-.354.54523-.51575.75952a5.274,5.274,0,0,1-.431.50842,3.08668,3.08668,0,0,1-.33032.29669,1.82892,1.82892,0,0,1-.25916.16461.84016.84016,0,0,1-.39038.10455.50116.50116,0,0,1-.16931-.02972.417.417,0,0,1-.13721-.08411.459.459,0,0,1-.0979-.13141.55945.55945,0,0,1-.053-.17065.87346.87346,0,0,1-.00537-.21741,1.78823,1.78823,0,0,1,.05652-.29169,2.824,2.824,0,0,1,.13977-.38214,4.68874,4.68874,0,0,1,.62134-.99414,4.86974,4.86974,0,0,1,.4126-.44861,3.353,3.353,0,0,1,.37769-.31372,2.10536,2.10536,0,0,1,.3064-.18164,1.1302,1.1302,0,0,1,.238-.08734.82948.82948,0,0,1,.18042-.02649.37766.37766,0,0,1,.31812.1438.43972.43972,0,0,1,.06738.1123.80011.80011,0,0,1,.01636.4754,1.45945,1.45945,0,0,1-.06494.21155c-.03687.09442-.09485.22687-.15625.3562h.31189a15.20681,15.20681,0,0,1,.74231-1.355c.271-.44135.56738-.87292.85522-1.25043a11.22173,11.22173,0,0,1,.81726-.9635,6.47853,6.47853,0,0,1,.65735-.60785,3.32912,3.32912,0,0,1,.47656-.323,1.682,1.682,0,0,1,.34351-.14551.63037.63037,0,0,1,.37085-.02167.30419.30419,0,0,1,.09692.0545.36474.36474,0,0,1,.11755.32147.65256.65256,0,0,1-.01562.09973.40626.40626,0,0,1-.04028.10663,2.16405,2.16405,0,0,1-.10828.18958l-.23633.02753c.05151-.11627.10071-.23395.12756-.30139a.42742.42742,0,0,0,.03381-.10248c.011-.05981.022-.09082-.03967-.14484a.07738.07738,0,0,0-.04578-.01544.29612.29612,0,0,0-.11353.02679,1.05729,1.05729,0,0,0-.198.116,3.11832,3.11832,0,0,0-.34631.29633c-.14587.14124-.3241.33112-.52612.57019-.201.23907-.42468.52765-.65015.84381-.22571.31683-.4541.6615-.67114,1.01373-.21741.35413-.4248.717-.61938,1.08392a9.66258,9.66258,0,0,0,.87708-.69159,9.18409,9.18409,0,0,0,.73865-.736,7.42919,7.42919,0,0,0,.57092-.71692l.26245-.02869a9.67563,9.67563,0,0,1-.70007.94714,5.9623,5.9623,0,0,1-.7948.78125,12.88592,12.88592,0,0,1-1.19983.86938c-.08044.20966-.15613.42145-.21179.59564-.057.17407-.09473.31049-.11633.40247a.60385.60385,0,0,0-.0282.30414c.00879.05414.071.13275.12427.1355a.16981.16981,0,0,0,.09229-.01276.40618.40618,0,0,0,.088-.04932.95049.95049,0,0,0,.167-.15845c.08557-.0932.20728-.24457.41663-.52264.21045-.2771.5094-.68237.71777-.94342a3.78405,3.78405,0,0,1,.42676-.46991c.1-.0932.18311-.16577.2572-.22357a2.12189,2.12189,0,0,1,.20349-.13965,1.15243,1.15243,0,0,1,.59167-.18817.55931.55931,0,0,1,.10828.00958.45009.45009,0,0,1,.12329.04218,1.63486,1.63486,0,0,1,.1991.11713l.19666-.16888h.57092l-1.1604,1.975c-.10071.18524-.19958.37061-.2511.46832-.06934.13281-.05322.10388-.06055.12451C28.47316,21.73084,28.471,21.77418,28.51991,21.78608Zm1.80188-4.968a3.52612,3.52612,0,0,1-1.33569.70605,2.45975,2.45975,0,0,1-.642.08618,2.14822,2.14822,0,0,1-.27759-.01227c-.04028-.00323-.0874-.00873-.13538-.0163l.58179-.70538a3.61658,3.61658,0,0,0,.9259-.109,2.94079,2.94079,0,0,0,.8125-.34589,6.11341,6.11341,0,0,0,.87549-.64624,2.43508,2.43508,0,0,1-.31018.526A3.31639,3.31639,0,0,1,30.32179,16.81812Z"/><path class="cls-1" d="M28.88136,19.76252a.84593.84593,0,0,0,.05029-.12347c.0144-.05505.03857-.10181-.00549-.14246a.17682.17682,0,0,0-.09851-.01855.20834.20834,0,0,0-.07446.0155.692.692,0,0,0-.12268.06189,1.71334,1.71334,0,0,0-.2124.15948,3.90624,3.90624,0,0,0-.30286.29132c-.1084.11578-.22168.24957-.32153.3772-.09924.12866-.1853.25354-.25659.3667-.07056.11334-.127.21466-.17139.30389a2.19347,2.19347,0,0,0-.10144.23517,1.614,1.614,0,0,0-.0553.184,1.33808,1.33808,0,0,0-.02319.13623c-.00513.07947-.0105.1214.03467.17664a.20337.20337,0,0,0,.21631.00873.47872.47872,0,0,0,.12439-.08215,1.45028,1.45028,0,0,0,.172-.18341,3.55707,3.55707,0,0,0,.24133-.32983l.81311-1.27A1.80674,1.80674,0,0,0,28.88136,19.76252Z"/><path class="cls-2" d="M19.99977,1.37824h0V.47914A18.74252,18.74252,0,0,0,1.89013,13.63666l.85439.2776A18.1472,18.1472,0,0,1,19.99977,1.37824Z"/><path class="cls-3" d="M33.81729,32.59709c.20947-.22095.41406-.44379.61108-.67236.20068-.233.39233-.47223.58154-.71484.19946-.25555.39526-.51215.57983-.77551.16675-.23761.32324-.48151.47925-.72693.176-.27747.34961-.55505.51-.83954.14526-.25714.27856-.52057.41211-.785.14185-.2818.28271-.56317.40967-.8504.1272-.2865.241-.5791.35425-.87286.10645-.277.21216-.55328.30518-.83417.103-.30988.19214-.62494.27954-.94165.0769-.27991.15234-.55927.21631-.84192.07129-.31439.13013-.63245.18555-.95251.05249-.30267.10083-.60492.13867-.90948.03711-.29974.06494-.60144.08789-.90533.02588-.338.04346-.67529.05127-1.01416.00342-.14758.02222-.29114.02222-.43958,0-.14111-.01807-.27765-.02124-.418-.00732-.34637-.02612-.69141-.05225-1.03717-.022-.29041-.04712-.57922-.082-.86584-.03955-.32385-.09131-.64551-.14746-.96753-.05225-.29968-.1062-.598-.17236-.89264-.06812-.30444-.1499-.60547-.23315-.907-.08276-.29883-.16626-.5965-.26294-.88916-.09692-.29346-.20752-.58246-.31909-.872-.11157-.28882-.22339-.57648-.34839-.85828-.125-.28241-.26367-.55945-.40332-.837-.14038-.27911-.28223-.55658-.43579-.82764-.14893-.26276-.30957-.52-.47217-.77716-.17456-.27625-.35205-.54919-.54-.81555-.167-.23608-.34253-.46722-.52173-.69745-.2124-.2735-.43018-.54126-.65674-.80255-.09229-.1062-.17065-.21967-.26562-.32434l-.01611.01453A18.97025,18.97025,0,0,0,19.9999.47911v.89911A18.08509,18.08509,0,0,1,33.694,7.64415c.21753.25055.425.50623.62622.7652.16968.2182.33691.438.49658.66406.18042.25513.34937.51532.51489.7771.1543.24408.30713.489.45.74084.147.25946.282.52338.415.788.13281.26337.26416.52716.38428.79767.11963.27.22632.54376.332.81793.106.27472.21118.5498.304.83075.09253.2804.17212.56366.25049.84723.07935.28595.157.57257.22217.864.06348.28235.1145.56653.16431.85089.05322.30511.10254.61127.14038.92139.03345.2746.05737.54968.07813.82513.0249.32733.04272.65643.05.9884q.00879.40842-.001.81653c-.00757.32483-.02466.64709-.04907.96747-.022.28748-.04761.57458-.08325.86078-.03638.29224-.08276.58105-.13281.8689-.05249.30292-.1084.60522-.17627.90552-.06152.27081-.1333.53741-.20654.80347-.08252.30029-.16772.6-.26611.89636-.08911.26862-.18945.53186-.29077.79474-.10718.27924-.21606.5578-.33765.83234-.12183.27423-.25488.54187-.38965.80872-.12671.25171-.25439.50293-.39355.74957-.15356.27173-.31836.53595-.48535.79877-.14795.23322-.29712.46564-.45679.69318-.17676.252-.36328.49634-.55249.73871-.17944.23016-.36206.4585-.5542.68152-.18823.21869-.38379.43073-.582.64014-.22119.23328-.44824.46252-.68408.68628q-.2959.281-.604.54883c-.25073.21765-.50635.42542-.76562.62689-.21826.16949-.438.33679-.66382.4964-.25537.18048-.51587.34955-.77808.5152-.24365.154-.48779.30664-.73926.44916-.26025.14752-.5249.28278-.79028.41632-.26245.1322-.52563.26343-.79517.38306-.271.12-.54541.22693-.82031.33295-.27417.10577-.54834.21057-.82861.30322-.28076.09271-.56445.1723-.84863.25085-.28564.07916-.572.15668-.86328.222-.28247.06329-.56641.11444-.85059.16406-.30518.05322-.61182.10291-.92187.14069-.27441.03345-.54956.05719-.825.07806-.32739.02484-.65649.04272-.98853.04993q-.40833.00879-.81641-.001c-.32471-.00739-.64673-.0246-.9668-.04883-.28809-.022-.57568-.048-.86255-.08368-.2915-.03613-.57935-.08246-.86646-.1322-.30347-.05273-.60645-.10852-.90747-.1767-.27026-.06122-.53638-.133-.802-.20618-.30078-.08276-.60107-.16815-.89819-.2666-.26782-.089-.53027-.1889-.79224-.28992-.27979-.10742-.55908-.21667-.83423-.33844-.27417-.1217-.54175-.25476-.80835-.38947-.25171-.12677-.50293-.25446-.74951-.39355-.27173-.15356-.53613-.31824-.79883-.48517-.23315-.148-.46582-.29749-.69336-.45709-.252-.1767-.49609-.36322-.73828-.55212-.23047-.17969-.45874-.3623-.68164-.5545-.219-.18829-.43115-.38385-.64063-.58228-.23291-.22083-.46191-.44775-.6853-.68317q-.28162-.29663-.55-.60529c-.21729-.25018-.42456-.50543-.62549-.764-.16992-.21875-.33789-.43915-.4978-.66571-.17993-.2547-.34863-.5144-.51392-.77576-.1543-.24426-.30737-.48932-.4502-.74121-.14722-.25977-.28223-.524-.41553-.78888-.13232-.26306-.26392-.52655-.38379-.79675-.11963-.26978-.22607-.5434-.33179-.81732-.1062-.27521-.21167-.5509-.30469-.8324-.09229-.2796-.17163-.562-.24976-.84479-.07959-.2868-.15723-.57428-.22266-.86658-.06323-.28149-.11426-.5647-.16357-.84821-.05347-.306-.10327-.613-.14111-.924-.03345-.274-.05713-.54877-.07788-.82373-.0249-.32745-.04272-.65674-.05-.98889-.00684-.31061-.00781-.62115.00122-.93152.00586-.19879.01147-.39758.02368-.59467.02344-.37823.06274-.75519.10986-1.13135.01953-.15741.033-.31677.05664-.4729.0791-.522.17822-1.0412.30273-1.55554.0271-.11121.064-.21844.09326-.32886A18.10768,18.10768,0,0,1,12.56411,2.97118l-.36816-.8194A18.10424,18.10424,0,0,0,7.2106,5.41338a18.93174,18.93174,0,0,0-5.30811,8.22729l-.01245-.004c-.1416.43591-.2583.85852-.36572,1.27917-.00537.02161-.01318.04266-.01855.06427a17.60728,17.60728,0,0,0-.50854,3.44031c-.009.15686-.01147.31348-.0166.47052-.0061.21088-.02246.41278-.02246.62994,0,.14075.01807.27686.021.41687.00757.34711.02612.69275.05249,1.03925.022.29.04688.57849.082.86475.03931.3241.09131.64594.14771.9682.052.29919.10571.59711.17163.89136.06836.30518.15039.60693.23389.90924.08276.2981.16577.595.26245.88708.09692.29395.20776.58344.31958.87354.11133.28833.22314.57556.3479.85693.12524.28278.26392.56024.40356.83807.14063.27881.282.55591.43555.82666.14917.26318.31006.52069.47266.7782.17432.2757.35132.54816.53906.814.16748.23669.34351.46826.52295.6991.21216.273.42944.54041.65576.80121.09229.10632.1709.21991.26587.32477.09985.11023.21069.20422.3125.31152q.34973.368.718.71576c.22119.20984.44458.415.67358.61224.23267.20032.47168.39191.71411.58093.25586.19965.51245.39563.77612.58044.23755.16675.48169.3233.72729.47925.27686.17578.5542.34906.83813.50928.25781.14569.522.27948.78711.41333.281.14148.56177.2818.84839.40857.28711.12756.58057.24158.875.3551.27637.10608.55176.21167.832.3045.3103.10315.62573.19238.94287.27972.27979.0769.55884.1524.84131.21637.31445.07123.63257.13.95264.18549.30273.05255.605.10083.90942.13873.29956.03717.60132.06476.90527.08783.33789.02588.67529.04333,1.01416.05121.14771.00336.29126.02222.4397.02222.14111,0,.27759-.01807.418-.02112.34619-.00745.69092-.02612,1.03662-.05237.291-.02209.58008-.04712.86719-.08209.32324-.03943.644-.09125.96533-.14728.30029-.05243.59961-.10632.895-.17261.30371-.06805.604-.14948.90479-.23267.29932-.08295.59766-.16638.89087-.26337.293-.09674.5813-.20715.87036-.3186.28955-.11182.57813-.22388.86035-.34924.28174-.12476.55811-.26282.83472-.402.27954-.14081.55762-.28265.82935-.43671.2627-.14893.51978-.30951.77686-.472.27637-.17462.54932-.35205.81567-.54022.23584-.16669.46655-.34216.69653-.52094.27417-.21289.54248-.431.8042-.65826.106-.09192.219-.17.32349-.26471.10962-.09949.20337-.20972.31006-.31116C33.34536,33.08348,33.58389,32.84355,33.81729,32.59709Z"/><circle class="cls-3" cx="32.09925" cy="32.62027" r="6.90062"/><path class="cls-4" d="M29.71666,35.72146V34.66823c.584-.56738,2.71875-2.34961,2.71875-3.502,0-.57617-.51367-.84668-1.02734-.84668a2.72864,2.72864,0,0,0-1.44922.50439l-.09961-1.04443a4.18787,4.18787,0,0,1,1.86523-.4502,1.72989,1.72989,0,0,1,1.9707,1.83691c0,1.332-1.3418,2.55664-2.36719,3.56494h2.56445v.99023Z"/></g></svg>