<svg xmlns="http://www.w3.org/2000/svg" xmlns:xlink="http://www.w3.org/1999/xlink" viewBox="0 0 40 40"><defs><style>.cls-1{fill:none;}.cls-2{fill:#72bf44;}.cls-3{fill:#3592b5;}.cls-4{clip-path:url(#clip-path);}.cls-5{fill:#050505;}.cls-6{fill:#fff;}</style><clipPath id="clip-path"><circle class="cls-1" cx="20.00008" cy="19.52087" r="13.46454"/></clipPath></defs><title>Artboard 85 copy 2</title><g id="Content"><path class="cls-2" d="M20.00017.47913v.8991a18.13977,18.13977,0,1,0,17.25525,12.536l.85439-.2776a18.10168,18.10168,0,0,1,.932,5.88423A19.0417,19.0417,0,1,1,20.00017.47913Z"/><path class="cls-3" d="M20.00017,1.37823h0V.47913A18.74252,18.74252,0,0,1,38.10982,13.63664l-.85439.2776A18.1472,18.1472,0,0,0,20.00017,1.37823Z"/><g class="cls-4"><path class="cls-5" d="M5.62164,5.10077H19.30169q-.00123,6.84-.00082,13.68005H5.62164V5.10077Z"/><path class="cls-5" d="M20.69845,5.10077H34.37851q0,6.84-.00082,13.68005-6.8388-.00123-13.67841,0-.00246-6.84-.00082-13.68005Z"/><path class="cls-5" d="M5.62164,20.17677q6.84.00246,13.68005.00164.00123,6.84,0,13.67923H5.62164V20.17677Z"/><path class="cls-5" d="M20.69927,20.17841q6.83879-.00246,13.67923-.00082V33.85764H20.69845q.00123-6.84.00082-13.67923Z"/></g><circle class="cls-3" cx="32.09946" cy="32.62025" r="6.90062"/><path class="cls-6" d="M30.81432,32.4445a1.60067,1.60067,0,0,1-1.04492-1.4585c0-1.12549.85547-1.65674,2-1.65674,1.10742,0,2.10547.45947,2.10547,1.5127a1.65341,1.65341,0,0,1-1.043,1.50342v.00879A1.75915,1.75915,0,0,1,34.037,34.00163c0,1.26953-.918,1.82764-2.16016,1.82764-1.22461,0-2.21484-.53125-2.21484-1.80957a1.69728,1.69728,0,0,1,1.15234-1.55713Zm1.0625,2.44873a.83075.83075,0,0,0,.90039-.8374c0-.62109-.53125-.91846-1.05273-1.08936a1.14418,1.14418,0,0,0-.80273,1.03516A.92011.92011,0,0,0,31.87682,34.89323Zm.08984-2.92578a1.08891,1.08891,0,0,0,.70313-.90967.73741.73741,0,0,0-.77539-.792.81983.81983,0,0,0-.918.75635C30.97643,31.56218,31.535,31.80534,31.96666,31.96745Z"/></g></svg>