<svg id="Layer_1" data-name="Layer 1" xmlns="http://www.w3.org/2000/svg" xmlns:xlink="http://www.w3.org/1999/xlink" viewBox="0 0 100 100"><defs><style>.cls-1{fill:none;}.cls-2{fill:#bdc4c7;}.cls-3{fill:#dee3e8;}.cls-4{fill:#69bf29;}.cls-5{clip-path:url(#clip-path);}.cls-6{fill:#455463;}.cls-7{fill:#fff;}</style><clipPath id="clip-path"><path class="cls-1" d="M27.65578,49.86922A21.94869,21.94869,0,1,0,49.60587,27.9205,21.94848,21.94848,0,0,0,27.65578,49.86922"/></clipPath></defs><title>Artboard 1 copy</title><polygon class="cls-2" points="49.596 50.032 49.605 97.875 91 73.976 91 26.177 49.596 50.032"/><polygon class="cls-3" points="8.21 26.177 49.604 50.076 49.606 97.875 8.21 73.976 8.21 26.177"/><polygon class="cls-4" points="8.21 26.177 49.604 50.076 91 26.177 49.606 2.279 8.21 26.177"/><g class="cls-5"><polygon class="cls-2" points="49.596 50.032 49.605 97.875 91 73.976 91 26.177 49.596 50.032"/><polygon class="cls-3" points="8.21 26.177 49.604 50.076 49.606 97.875 8.21 73.976 8.21 26.177"/><polygon class="cls-4" points="8.21 26.177 49.604 50.076 91 26.177 49.606 2.279 8.21 26.177"/></g><path class="cls-6" d="M49.48463,2.21314,8.04,26.14117V73.99871l41.44459,23.928,41.446-23.928V26.14117Zm0,4.88449L86.7007,28.58415v42.973L49.48463,93.04225,12.26988,71.55715v-42.973Z"/><path class="cls-7" d="M49.60505,69.70236a19.833,19.833,0,1,1,19.833-19.833,19.85493,19.85493,0,0,1-19.833,19.833"/><path class="cls-6" d="M49.60505,27.92153A21.948,21.948,0,1,0,71.55231,49.8702,21.94849,21.94849,0,0,0,49.60505,27.92153m0,4.22985A17.71811,17.71811,0,1,1,31.88623,49.8702,17.73741,17.73741,0,0,1,49.60505,32.15138"/><path class="cls-6" d="M55.9223,43.16278c0,3.89134-2.79418,7.04512-6.23875,7.04512-3.446,0-6.24017-3.15378-6.24017-7.04512s2.79418-7.04508,6.24017-7.04508c3.44458,0,6.23875,3.15378,6.23875,7.04508"/><path class="cls-6" d="M45.04252,49.86948h9.11576a7.65313,7.65313,0,0,1,7.65338,7.65342v2.66488H37.3891V57.5229a7.65317,7.65317,0,0,1,7.65342-7.65342"/></svg>