<svg id="Layer_1" data-name="Layer 1" xmlns="http://www.w3.org/2000/svg" viewBox="0 0 100 100"><defs><style>.cls-1{fill:#bdc4c7;}.cls-2{fill:#fff;}.cls-3{fill:#61ad26;}.cls-4{fill:#455466;}</style></defs><title>Artboard 1 copy 3</title><polygon class="cls-1" points="38.433 25.987 38.433 54.567 16.914 46.363 16.914 32.442 38.433 25.987"/><polygon class="cls-2" points="40.544 54.971 14.802 40.108 19.066 62.57 40.544 54.971"/><polygon class="cls-3" points="40.544 25.247 19.066 17.827 14.802 40.109 40.544 25.247"/><polygon class="cls-4" points="83.512 25.987 59.952 25.987 59.952 2.316 83.512 25.987"/><path class="cls-4" d="M14.75847,10.385V69.8327L40.50034,54.97054V25.24722Zm4.30385,7.45469,17.13317,9.892V52.486L19.06232,62.378V17.83972Z"/><path class="cls-4" d="M19.09957,8.44623a2.18062,2.18062,0,0,1,2.118-1.82745H59.95206V2.31493H21.21759A6.48015,6.48015,0,0,0,15.28134,6.242Z"/><path class="cls-4" d="M55.60986,86.2407H21.21719A2.18005,2.18005,0,0,1,19.0663,84.0888V71.65573l-4.30485,2.48561V84.0888a6.47461,6.47461,0,0,0,6.45574,6.45574H55.60986Z"/><path class="cls-4" d="M83.62366,25.98665H79.31981V84.0894a2.18006,2.18006,0,0,1-2.15192,2.15089H68.56022v4.30485h8.60766a6.47526,6.47526,0,0,0,6.45577-6.45574Z"/><polygon class="cls-3" points="72.749 60.397 65.148 52.795 65.154 52.789 62.111 49.745 62.104 49.752 62.097 49.745 59.054 52.789 59.061 52.795 51.46 60.397 54.504 63.44 59.921 58.022 59.921 97 64.225 97 64.225 57.96 69.706 63.44 72.749 60.397"/></svg>