<svg id="Layer_1" data-name="Layer 1" xmlns="http://www.w3.org/2000/svg" viewBox="0 0 100 100"><defs><style>.cls-1{fill:#bdc4c7;}.cls-2{fill:#dee3e8;}.cls-3{fill:#69bf29;}.cls-4{fill:#455463;}.cls-5{fill:#fff;}</style></defs><title>Artboard 1</title><polygon class="cls-1" points="50.506 49.914 50.51 71.587 69.263 60.761 69.263 39.107 50.506 49.914"/><polygon class="cls-2" points="31.758 39.107 50.51 49.935 50.51 71.588 31.758 60.762 31.758 39.107"/><polygon class="cls-3" points="31.758 39.107 50.51 49.935 69.264 39.107 50.51 28.28 31.758 39.107"/><path class="cls-4" d="M50.62477,27.89162a21.78055,21.78055,0,1,0,21.7799,21.77986,21.78084,21.78084,0,0,0-21.7799-21.77986m0,4.19762A17.58291,17.58291,0,1,1,33.04253,49.67148,17.60277,17.60277,0,0,1,50.62477,32.08924"/><path class="cls-5" d="M50.60171,15.859a5.74547,5.74547,0,1,1,5.74478-5.74608A5.7517,5.7517,0,0,1,50.60171,15.859"/><path class="cls-4" d="M50.60171,2.26978a7.84363,7.84363,0,1,0,7.84363,7.84363,7.84323,7.84323,0,0,0-7.84363-7.84363m0,4.19762a3.646,3.646,0,1,1-3.646,3.646,3.64955,3.64955,0,0,1,3.646-3.646"/><path class="cls-5" d="M50.60171,95.418a5.7448,5.7448,0,1,1,5.74478-5.74478A5.75145,5.75145,0,0,1,50.60171,95.418"/><path class="cls-4" d="M50.60171,81.82908a7.84432,7.84432,0,1,0,7.84363,7.84367,7.84324,7.84324,0,0,0-7.84363-7.84367m0,4.19766a3.64666,3.64666,0,1,1-3.646,3.646,3.65038,3.65038,0,0,1,3.646-3.646"/><path class="cls-5" d="M85.15637,75.16757a5.7448,5.7448,0,1,1,5.74478-5.74478,5.75145,5.75145,0,0,1-5.74478,5.74478"/><path class="cls-4" d="M85.15637,61.57856A7.84365,7.84365,0,1,0,93,69.42223a7.84324,7.84324,0,0,0-7.84363-7.84367m0,4.19766a3.646,3.646,0,1,1-3.646,3.646,3.65038,3.65038,0,0,1,3.646-3.646"/><path class="cls-5" d="M15.84367,75.16757a5.7448,5.7448,0,1,1,5.74478-5.74478,5.75145,5.75145,0,0,1-5.74478,5.74478"/><path class="cls-4" d="M15.84367,61.57856a7.84365,7.84365,0,1,0,7.84363,7.84367,7.84324,7.84324,0,0,0-7.84363-7.84367m0,4.19766a3.646,3.646,0,1,1-3.646,3.646,3.65038,3.65038,0,0,1,3.646-3.646"/><path class="cls-3" d="M85.15637,35.804a5.74478,5.74478,0,1,1,5.74478-5.74478A5.75143,5.75143,0,0,1,85.15637,35.804"/><path class="cls-4" d="M85.15637,22.21517A7.84363,7.84363,0,1,0,93,30.05879a7.84323,7.84323,0,0,0-7.84363-7.84363m0,4.19762a3.646,3.646,0,1,1-3.646,3.646,3.65038,3.65038,0,0,1,3.646-3.646"/><path class="cls-5" d="M15.84367,35.804a5.74478,5.74478,0,1,1,5.74478-5.74478A5.75143,5.75143,0,0,1,15.84367,35.804"/><path class="cls-4" d="M15.84367,22.21517a7.84363,7.84363,0,1,0,7.84363,7.84363,7.84323,7.84323,0,0,0-7.84363-7.84363m0,4.19762a3.646,3.646,0,1,1-3.646,3.646,3.65038,3.65038,0,0,1,3.646-3.646"/><rect class="cls-4" x="48.44275" y="16.52838" width="4.31629" height="14.39199"/><rect class="cls-4" x="65.64905" y="35.02625" width="14.39135" height="4.31624" transform="translate(-8.83283 41.40446) rotate(-30.00024)"/><rect class="cls-4" x="26.43029" y="29.98842" width="4.31658" height="14.39191" transform="translate(-17.90919 43.34407) rotate(-59.99193)"/><rect class="cls-4" x="70.68675" y="55.67914" width="4.31623" height="14.39134" transform="translate(-18.02484 94.53414) rotate(-60.00708)"/><rect class="cls-4" x="21.3927" y="60.7167" width="14.39136" height="4.31622" transform="translate(-27.60745 22.71805) rotate(-30.00024)"/><rect class="cls-4" x="48.44275" y="69.23512" width="4.31629" height="14.39199"/></svg>