<svg id="Layer_1" data-name="Layer 1" xmlns="http://www.w3.org/2000/svg" viewBox="0 0 100 100"><defs><style>.cls-1{fill:#fff;}.cls-2{fill:#bdc4c7;}.cls-3{fill:#69bf29;}.cls-4{fill:#455463;}</style></defs><title>Artboard 1 copy 2</title><path class="cls-1" d="M80.387,18.3255,15.01548,65.26422S22.84106,92.87139,49.44562,95.6903c0,0,34.16235-8.19041,36.43137-27.62448,2.26895-19.43273-1.01736-48.49661-1.01736-48.49661Z"/><path class="cls-2" d="M17.49923,20.4942,15.3487,65.99883,50.31141,50.85372l-.28632-45.727S26.17426,18.51287,17.49923,20.4942"/><path class="cls-3" d="M50.02444,5.127l.28624,45.727L83.20811,18.15625S63.08034,20.52244,50.02444,5.127"/><path class="cls-4" d="M50.0233,98h0Zm.05193-94.78686a4.349,4.349,0,0,0-2.87084,1.08124A44.15941,44.15941,0,0,1,19.56256,15.85894,6.76668,6.76668,0,0,0,13.247,22.52205l-.5446,43.19168S12.70241,88.2224,50.0246,98c37.32219-9.7776,37.32219-32.28627,37.32219-32.28627l-.5446-43.19168a6.76766,6.76766,0,0,0-6.31555-6.66311A43.70723,43.70723,0,0,1,52.966,4.31035a4.35478,4.35478,0,0,0-2.89076-1.09721m0,4.2037a.15642.15642,0,0,1,.10785.044A47.92463,47.92463,0,0,0,80.2043,20.05334a2.57573,2.57573,0,0,1,2.39419,2.52194l.54322,43.14645c-.008.217-.24365,4.68308-3.93469,10.10253a35.805,35.805,0,0,1-9.93076,9.50331A66.684,66.684,0,0,1,50.0246,93.64847a67.34727,67.34727,0,0,1-18.84952-8.05724,36.52269,36.52269,0,0,1-9.988-9.27165c-3.99873-5.61251-4.26368-10.17575-4.27969-10.6245l.5433-43.1198a2.57573,2.57573,0,0,1,2.39419-2.52194A48.44633,48.44633,0,0,0,49.974,7.45682a.14265.14265,0,0,1,.10126-.04"/></svg>