<svg xmlns="http://www.w3.org/2000/svg" viewBox="0 0 118 104">
  <defs>
    <style>
      .tri { fill: #72BF44; }
    </style>
  </defs>
  <g class="icon">
    <path class="tri" d="M64.4,3c-1.7-2.9-5.3-3.8-8.2-2.2C55.3,1.3,54.5,2.1,54,3L28.3,47.6c9.4,5.5,20.1,8.3,31,8.3c10.9,0,21.5-2.9,30.9-8.3L64.4,3" />
    <path class="tri" d="M117.2,95L91.5,50.3c-19.2,11-31,31.5-31,53.6l51.5,0c3.3,0,6-2.7,6-6.1C118,96.9,117.7,95.9,117.2,95" />
    <path class="tri" d="M26.6,50.2L0.8,94.8c-1.1,1.9-1,4.1,0,6c1.1,1.9,3,3.1,5.2,3.2l51.5,0c0-10.9-2.8-21.6-8.2-31C43.9,63.5,36.1,55.7,26.6,50.2" />
  </g>
</svg>