<svg id="svg3382" xmlns="http://www.w3.org/2000/svg" viewBox="0 0 456 105"><defs><style>.cls-1{fill:#fff;}</style></defs><title>Artboard 1</title><g id="g3390"><g id="g3392"><g id="g3394"><g id="g3400"><path id="path3402" class="cls-1" d="M401.73463,2.9825a5.99836,5.99836,0,0,0-10.35625-.02375l-25.72375,44.535a61.42843,61.42843,0,0,0,30.91375,8.3025,61.44806,61.44806,0,0,0,30.88125-8.28375Z"/></g><g id="g3404"><path id="path3406" class="cls-1" d="M454.513,94.728,428.81674,50.18676a61.75636,61.75636,0,0,0-30.935,53.49125l51.42875.02a6.00984,6.00984,0,0,0,5.2025-8.97"/></g><g id="g3408"><path id="path3410" class="cls-1" d="M364.05214,50.09187l-25.8325,44.475a6.01509,6.01509,0,0,0,.01375,5.96125,6.15755,6.15755,0,0,0,5.185,3.15l51.41.005a61.737,61.737,0,0,0-30.77625-53.59126"/></g><g id="g3412"><path id="path3414" class="cls-1" d="M25.4725,35.15039a11.1715,11.1715,0,0,1-1.33,3.55625,7.07758,7.07758,0,0,1-2.49375,2.4925,7.50188,7.50188,0,0,1-3.89125.93125A7.02679,7.02679,0,0,1,14,41.16539a8.28507,8.28507,0,0,1-2.5925-2.525A10.89738,10.89738,0,0,1,9.91,35.08414a17.51194,17.51194,0,0,1-.465-3.9875,19.074,19.074,0,0,1,.43125-4.08875,10.91854,10.91854,0,0,1,1.3975-3.48875,7.342,7.342,0,0,1,2.56-2.46125,7.68278,7.68278,0,0,1,3.92375-.93,7.3129,7.3129,0,0,1,3.8575.93,7.69166,7.69166,0,0,1,2.495,2.4275,10.01388,10.01388,0,0,1,1.3625,3.45625,20.53714,20.53714,0,0,1,.39875,4.08875,21.03008,21.03008,0,0,1-.39875,4.12m.05625-17.0225h-.1125a10.14278,10.14278,0,0,0-4.35875-3.83125,13.49332,13.49332,0,0,0-5.82125-1.30125,14.15738,14.15738,0,0,0-6.65375,1.4975A14.27961,14.27961,0,0,0,3.825,18.45164,17.35159,17.35159,0,0,0,.96375,24.14039,23.18091,23.18091,0,0,0,0,30.82539a24.68994,24.68994,0,0,0,.96375,6.91875,18.4083,18.4083,0,0,0,2.86,5.8875,13.639,13.639,0,0,0,4.8225,4.0575A14.69852,14.69852,0,0,0,15.43,49.18664a14.504,14.504,0,0,0,6.08375-1.23125,9.72634,9.72634,0,0,0,4.3575-4.02625h.1325v4.39125H34.975V.81914H25.52875Z"/></g><path id="path3416" class="cls-1" d="M42.37413,8.59539h9.44626V.81915H42.37413Z"/><path id="path3418" class="cls-1" d="M42.37413,48.31413h9.44626v-34.38H42.37413Z"/><g id="g3424"><path id="path3426" class="cls-1" d="M127.28713,27.41239a10.80737,10.80737,0,0,1,.4325-2.2525,6.91094,6.91094,0,0,1,1.2625-2.38375,7.15326,7.15326,0,0,1,2.395-1.88625,8.24711,8.24711,0,0,1,3.7575-.7625,6.653,6.653,0,0,1,5.15375,1.85375,10.86476,10.86476,0,0,1,2.36,5.43125Zm21.11375-8.1675a15.25428,15.25428,0,0,0-5.35375-4.55375,16.352,16.352,0,0,0-7.64625-1.695,17.80409,17.80409,0,0,0-7.14875,1.3975,16.61833,16.61833,0,0,0-9.14625,9.58,20.03137,20.03137,0,0,0-1.26375,7.185,20.94751,20.94751,0,0,0,1.23,7.31625,16.602,16.602,0,0,0,3.4925,5.72125,15.19444,15.19444,0,0,0,5.5225,3.69375,19.668,19.668,0,0,0,7.31375,1.29625,18.0182,18.0182,0,0,0,9.97375-2.6575q4.12313-2.65687,6.12-8.83625h-8.3125a5.929,5.929,0,0,1-2.5275,3.01375,9.69283,9.69283,0,0,1-11.03875-.64q-2.13-2.06625-2.32875-6.66125h24.80375a24.19875,24.19875,0,0,0-.66375-7.645,18.73119,18.73119,0,0,0-3.02625-6.515"/></g><g id="g3428"><path id="path3430" class="cls-1" d="M189.92437,48.31388v-21.15a27.695,27.695,0,0,0-.565-5.82125,11.06734,11.06734,0,0,0-1.9625-4.455,9.2335,9.2335,0,0,0-3.8275-2.86,16.0548,16.0548,0,0,0-6.22375-1.03125,13.49944,13.49944,0,0,0-5.85625,1.36125,10.83028,10.83028,0,0,0-4.6575,4.3475h-.2V13.91639h-8.99v34.3975h9.445V30.28139q0-5.2575,1.73375-7.55375,1.7325-2.29688,5.595-2.29625,3.3975,0,4.73,2.0975,1.33312,2.09625,1.33375,6.35375V48.31388Z"/></g><path id="path3422" class="cls-1" d="M108.54551,15.79014a10.1764,10.1764,0,0,0-3.99-2.12875,18.33978,18.33978,0,0,0-5.055-.665,11.067,11.067,0,0,0-6.21876,1.72625,14.62993,14.62993,0,0,0-4.15625,3.98251,8.3543,8.3543,0,0,0-4.09-4.4475,13.86592,13.86592,0,0,0-5.95-1.26125,12.186,12.186,0,0,0-6.01875,1.46,13.46956,13.46956,0,0,0-4.49,4.11625h-.1325v-4.655H59.5305V48.31388h9.445V28.35138a9.72608,9.72608,0,0,1,.7325-4.0925,6.60148,6.60148,0,0,1,1.76125-2.3975,5.85478,5.85478,0,0,1,2.12749-1.13,7.12477,7.12477,0,0,1,1.7625-.3,6.27672,6.27672,0,0,1,3.425.765,4.26052,4.26052,0,0,1,1.6625,2.03,8.52007,8.52007,0,0,1,.56376,2.76125q.06749,1.49626.06624,3.0275V48.31384H90.523v-19.165a21.60774,21.60774,0,0,1,.23125-3.16,8.07731,8.07731,0,0,1,.9325-2.79625,5.52442,5.52442,0,0,1,1.92875-1.99625,6.03466,6.03466,0,0,1,3.225-.765,6.37675,6.37675,0,0,1,3.15874.665,4.44452,4.44452,0,0,1,1.76125,1.7975,6.94821,6.94821,0,0,1,.73,2.66125q.135,1.53188.13374,3.26V48.31384h9.445V25.3001a15.51838,15.51838,0,0,0-.93-5.685,9.75753,9.75753,0,0,0-2.59375-3.825"/><g id="g3432"><path id="path3434" class="cls-1" d="M227.26938,37.28426a8.02687,8.02687,0,0,0-.92875-4.02375,8.5415,8.5415,0,0,0-2.45875-2.72625,13.22973,13.22973,0,0,0-3.48625-1.76125,39.93546,39.93546,0,0,0-4.0175-1.13125q-1.99125-.46313-3.91875-.8625a30.15532,30.15532,0,0,1-3.42125-.89875,7.13427,7.13427,0,0,1-2.42375-1.2975,2.58467,2.58467,0,0,1-.93-2.06,2.54814,2.54814,0,0,1,.5325-1.69625,3.48341,3.48341,0,0,1,1.29375-.96375,5.75151,5.75151,0,0,1,1.6925-.43125,16.341,16.341,0,0,1,1.72625-.10125,9.43981,9.43981,0,0,1,4.38125.96,4.10383,4.10383,0,0,1,2.05875,3.67h8.99a11.29994,11.29994,0,0,0-1.62875-5.28375,10.77087,10.77087,0,0,0-3.42375-3.355,14.3488,14.3488,0,0,0-4.6875-1.79375,27.22243,27.22243,0,0,0-5.42-.5325,29.52179,29.52179,0,0,0-5.4525.5,14.93515,14.93515,0,0,0-4.78625,1.72875,9.5388,9.5388,0,0,0-3.42375,3.35875,10.32855,10.32855,0,0,0-1.2975,5.45375,7.36593,7.36593,0,0,0,.93,3.82625,8.08689,8.08689,0,0,0,2.4575,2.59375,13.63163,13.63163,0,0,0,3.48625,1.66125q1.95938.63375,4.01875,1.09875a55.99885,55.99885,0,0,1,7.87125,2.12875q2.82,1.06312,2.82125,3.19a3.51342,3.51342,0,0,1-.59625,2.09625,4.51547,4.51547,0,0,1-1.49125,1.33,7.12123,7.12123,0,0,1-1.99.73375,10.12274,10.12274,0,0,1-2.0875.23125,10.83173,10.83173,0,0,1-2.68625-.33125,7.00776,7.00776,0,0,1-2.28625-1.02625,5.50867,5.50867,0,0,1-1.62375-1.79,5.16457,5.16457,0,0,1-.63-2.61875h-8.99a11.54281,11.54281,0,0,0,1.56125,5.7475,11.39407,11.39407,0,0,0,3.65375,3.6875,15.4376,15.4376,0,0,0,5.08375,1.99125,28.45353,28.45353,0,0,0,5.8475.59875,29.25689,29.25689,0,0,0,5.7475-.565,14.52557,14.52557,0,0,0,5.015-1.96125,10.43343,10.43343,0,0,0,4.9175-9.375"/></g><path id="path3436" class="cls-1" d="M242.53164.81913h-9.44626V8.59537h9.44626Z"/><path id="path3438" class="cls-1" d="M242.53164,13.93413h-9.44626v34.38h9.44626Z"/><g id="g3440"><path id="path3442" class="cls-1" d="M257.428,27.10838a10.36527,10.36527,0,0,1,1.36-3.5225,7.63332,7.63332,0,0,1,2.555-2.49375,7.55337,7.55337,0,0,1,3.98125-.96375,7.73724,7.73724,0,0,1,4.01375.96375,7.53587,7.53587,0,0,1,2.58875,2.49375,10.36386,10.36386,0,0,1,1.35875,3.5225,20.69861,20.69861,0,0,1,.39875,4.055,20.17872,20.17872,0,0,1-.39875,4.02,10.74583,10.74583,0,0,1-1.35875,3.52375,7.17344,7.17344,0,0,1-2.58875,2.49125,7.96149,7.96149,0,0,1-4.01375.9325,7.771,7.771,0,0,1-3.98125-.9325,7.25812,7.25812,0,0,1-2.555-2.49125,10.74756,10.74756,0,0,1-1.36-3.52375,20.17807,20.17807,0,0,1-.39625-4.02,20.69694,20.69694,0,0,1,.39625-4.055m-4.99375,17.18875a15.71736,15.71736,0,0,0,5.58125,3.625,20.05686,20.05686,0,0,0,7.30875,1.26375,20.31924,20.31924,0,0,0,7.34-1.26375,15.65777,15.65777,0,0,0,5.615-3.625,16.16206,16.16206,0,0,0,3.5875-5.68875,20.83831,20.83831,0,0,0,1.2625-7.45,21.12223,21.12223,0,0,0-1.2625-7.485,15.64447,15.64447,0,0,0-9.2025-9.37875,19.82121,19.82121,0,0,0-7.34-1.29875,19.566,19.566,0,0,0-7.30875,1.29875,15.71015,15.71015,0,0,0-9.16875,9.37875,21.15037,21.15037,0,0,0-1.26125,7.485,20.866,20.866,0,0,0,1.26125,7.45,16.16206,16.16206,0,0,0,3.5875,5.68875"/></g><g id="g3444"><path id="path3446" class="cls-1" d="M297.35486,30.28114q0-5.2575,1.7325-7.55375,1.7325-2.29687,5.59625-2.29625,3.39562,0,4.72875,2.0975,1.33313,2.09625,1.33375,6.35375V48.31364h9.445v-21.15a27.7783,27.7783,0,0,0-.565-5.82125,11.04619,11.04619,0,0,0-1.96375-4.45375,9.22361,9.22361,0,0,0-3.82625-2.86125,16.05236,16.05236,0,0,0-6.2225-1.03125,13.49538,13.49538,0,0,0-5.85625,1.36125,10.82622,10.82622,0,0,0-4.65875,4.3475h-.19875v-4.7875h-8.99V48.31364h9.445Z"/></g><g id="g3448"><path id="path3450" class="cls-1" d="M209.839,90.49227a11.16434,11.16434,0,0,1-1.33,3.55625,7.06741,7.06741,0,0,1-2.495,2.49125,7.48508,7.48508,0,0,1-3.89.9325,7.02417,7.02417,0,0,1-3.7575-.96625,8.281,8.281,0,0,1-2.5925-2.52375,10.866,10.866,0,0,1-1.4975-3.5575,17.44208,17.44208,0,0,1-.465-3.9875,19.0942,19.0942,0,0,1,.43125-4.09,10.9086,10.9086,0,0,1,1.3975-3.49,7.34275,7.34275,0,0,1,2.56-2.4575,7.65477,7.65477,0,0,1,3.92375-.9325,7.29265,7.29265,0,0,1,3.8575.9325,7.69244,7.69244,0,0,1,2.49375,2.425,9.99253,9.99253,0,0,1,1.36375,3.4575,20.54632,20.54632,0,0,1,.39875,4.08875,21.04283,21.04283,0,0,1-.39875,4.12125m.05625-17.02375h-.1125A10.16981,10.16981,0,0,0,205.424,69.636a13.51017,13.51017,0,0,0-5.82125-1.3,13.90133,13.90133,0,0,0-11.41125,5.45625,17.33688,17.33688,0,0,0-2.86,5.68625,23.209,23.209,0,0,0-.965,6.68625,24.69294,24.69294,0,0,0,.965,6.92,18.3932,18.3932,0,0,0,2.85875,5.8875,13.63566,13.63566,0,0,0,4.8225,4.05625,14.68146,14.68146,0,0,0,6.7825,1.49875,14.529,14.529,0,0,0,6.085-1.23,9.7396,9.7396,0,0,0,4.3575-4.02625h.1325v4.39125h8.97125V56.15851h-9.44625Z"/></g><g id="g3452"><path id="path3454" class="cls-1" d="M247.87,90.35438a17.93264,17.93264,0,0,1-.16625,2.12875,7.13131,7.13131,0,0,1-.89875,2.6275,6.2129,6.2129,0,0,1-2.25875,2.22625,8.33922,8.33922,0,0,1-4.32125.93125,11.91455,11.91455,0,0,1-2.19375-.19875,5.33421,5.33421,0,0,1-1.86125-.7,3.54655,3.54655,0,0,1-1.26375-1.36375,4.42016,4.42016,0,0,1-.465-2.12625,4.59191,4.59191,0,0,1,.465-2.195,4.28345,4.28345,0,0,1,1.23-1.43,6.25711,6.25711,0,0,1,1.795-.89875,17.46606,17.46606,0,0,1,2.09375-.53125q1.13063-.19875,2.26-.33125c.75375-.09,1.47375-.19875,2.16125-.33125a15.3017,15.3017,0,0,0,1.9275-.5,4.2248,4.2248,0,0,0,1.49625-.8325Zm9.44625,5.65625v-17.895a8.27362,8.27362,0,0,0-1.3975-5.0225,9.56588,9.56588,0,0,0-3.59125-2.96,16.09287,16.09287,0,0,0-4.85375-1.42875,38.37215,38.37215,0,0,0-5.255-.36875,28.971,28.971,0,0,0-5.68625.56625,16.23648,16.23648,0,0,0-5.0875,1.89375,11.30657,11.30657,0,0,0-3.725,3.52,10.96626,10.96626,0,0,0-1.6625,5.515h9.44625a5.296,5.296,0,0,1,1.86125-3.96875,7.20015,7.20015,0,0,1,4.3875-1.19125,15.88868,15.88868,0,0,1,2.36125.1675,5.225,5.225,0,0,1,1.92875.665,3.69343,3.69343,0,0,1,1.32875,1.39625,5.00273,5.00273,0,0,1,.49875,2.42625,2.5519,2.5519,0,0,1-.865,2.2275,6.37127,6.37127,0,0,1-2.52625,1.165,25.25808,25.25808,0,0,1-3.6575.6q-2.06062.19875-4.18875.53a39.40023,39.40023,0,0,0-4.2225.8975,11.928,11.928,0,0,0-3.725,1.69625,8.61205,8.61205,0,0,0-2.65875,3.025,10.02139,10.02139,0,0,0-1.03,4.82,10.79571,10.79571,0,0,0,.89625,4.5875,8.66436,8.66436,0,0,0,2.49625,3.1925,10.50566,10.50566,0,0,0,3.72625,1.86,16.92856,16.92856,0,0,0,4.5925.60125,21.4535,21.4535,0,0,0,6.25625-.9325,12.29754,12.29754,0,0,0,5.32375-3.265,13.98527,13.98527,0,0,0,.2325,1.69625,13.339,13.339,0,0,0,.43125,1.62875l9.56125.00625a8.08981,8.08981,0,0,1-.93125-3.19375,35.92226,35.92226,0,0,1-.265-4.4575"/></g><g id="g3456"><path id="path3458" class="cls-1" d="M276.593,58.96639h-9.445v10.28h-5.71875v6.335H267.148V95.87764a8.78721,8.78721,0,0,0,.865,4.1925,6.16433,6.16433,0,0,0,2.36125,2.46125,9.77631,9.77631,0,0,0,3.46,1.16375,27.635,27.635,0,0,0,4.155.3q1.39875,0,2.86-.0675a22.11709,22.11709,0,0,0,2.66-.2725V96.33139a13.06682,13.06682,0,0,1-1.39625.20125c-.4875.0425-.9975.06625-1.53.06625q-2.3925,0-3.19125-.79875-.80062-.79688-.79875-3.19125V75.58139h6.91625v-6.335H276.593Z"/></g><g id="g3460"><path id="path3462" class="cls-1" d="M310.77649,90.35438a17.97942,17.97942,0,0,1-.1675,2.12875,7.12842,7.12842,0,0,1-.8975,2.6275,6.23247,6.23247,0,0,1-2.25875,2.22625,8.34421,8.34421,0,0,1-4.3225.93125,11.901,11.901,0,0,1-2.1925-.19875,5.32479,5.32479,0,0,1-1.86125-.7,3.53712,3.53712,0,0,1-1.26375-1.36375,4.42,4.42,0,0,1-.46625-2.12625,4.59142,4.59142,0,0,1,.46625-2.195,4.26939,4.26939,0,0,1,1.23-1.43,6.25711,6.25711,0,0,1,1.795-.89875,17.46605,17.46605,0,0,1,2.09375-.53125q1.13063-.19875,2.25875-.33125c.755-.09,1.475-.19875,2.16125-.33125a15.43476,15.43476,0,0,0,1.92875-.5,4.25791,4.25791,0,0,0,1.49625-.8325Zm9.71125,10.11375a35.67692,35.67692,0,0,1-.26625-4.4575v-17.895a8.26522,8.26522,0,0,0-1.3975-5.0225,9.56588,9.56588,0,0,0-3.59125-2.96,16.09014,16.09014,0,0,0-4.855-1.42875,38.34042,38.34042,0,0,0-5.25375-.36875,28.95847,28.95847,0,0,0-5.685.56625,16.23224,16.23224,0,0,0-5.08875,1.89375,11.30261,11.30261,0,0,0-3.72375,3.52,10.95433,10.95433,0,0,0-1.66375,5.515h9.4475a5.296,5.296,0,0,1,1.86125-3.96875,7.19761,7.19761,0,0,1,4.3875-1.19125,15.85913,15.85913,0,0,1,2.36.1675,5.20919,5.20919,0,0,1,1.92875.665,3.67468,3.67468,0,0,1,1.32875,1.39625,5.0018,5.0018,0,0,1,.5,2.42625,2.55519,2.55519,0,0,1-.865,2.2275,6.37728,6.37728,0,0,1-2.5275,1.165,25.268,25.268,0,0,1-3.65625.6q-2.0625.19875-4.18875.53a39.40023,39.40023,0,0,0-4.2225.8975,11.928,11.928,0,0,0-3.725,1.69625,8.62749,8.62749,0,0,0-2.66,3.025,10.02139,10.02139,0,0,0-1.03,4.82,10.79571,10.79571,0,0,0,.89625,4.5875,8.68034,8.68034,0,0,0,2.4975,3.1925,10.50566,10.50566,0,0,0,3.72625,1.86,16.922,16.922,0,0,0,4.5925.60125,21.45141,21.45141,0,0,0,6.255-.9325,12.30164,12.30164,0,0,0,5.325-3.265,13.98438,13.98438,0,0,0,.23125,1.69625,13.34343,13.34343,0,0,0,.4325,1.62875l9.56.00625a8.07106,8.07106,0,0,1-.93-3.19375"/></g></g></g></g></svg>