<svg version="1" xmlns="http://www.w3.org/2000/svg" width="1200" height="1200" viewBox="0 0 900.000000 900.000000"><path d="M437.9 98.8c-6 2-12.8 6.3-17.1 10.9-2.3 2.4-178.6 307.1-179.1 309.6-.3 1.3 20.3 12.4 37.8 20.3 41.5 18.7 86.8 30.5 134 35 23.4 2.2 69.5 1.5 91-1.5 37.8-5.1 70.7-13.7 104.5-27.3 13.8-5.5 50.3-23.3 52-25.3 1.5-1.8-173.9-305-180.4-311.7-2.5-2.5-7.5-6.1-11.2-7.9-6-3-7.8-3.4-16.3-3.6-7.2-.2-11 .2-15.2 1.5zM141.5 589.3C93.1 673 52.7 744 51.7 747c-2.6 7.5-2 21.1 1.2 29.3s12.3 17.7 20.9 21.9l6.7 3.3 179.9.3 179.9.2-.6-18.2c-1.5-45.5-11.7-94.3-28.7-137.3-30.4-77-81.4-142-148.1-189-12.7-8.9-31-20.5-32.4-20.4-.5 0-40.6 68.5-89 152.2zM658 444.6C564.6 502.7 498.2 594 472 700.5c-7.1 29-10.7 54.5-11.7 83.2l-.6 18.3h176c114.8 0 177.9-.4 181.4-1 12.7-2.4 23.6-10.9 29.2-22.7 4-8.6 4.9-21 2.2-29.5-2.2-6.9-176.6-310.2-178.6-310.5-.7-.1-6.1 2.7-11.9 6.3z"/></svg>